<svg id="Group_1" data-name="Group 1" xmlns="http://www.w3.org/2000/svg" width="231.1" height="134.779" viewBox="0 0 231.1 134.779">
  <path id="Path_2" data-name="Path 2" d="M1756.562,1004.242l-.079-.142-.051.092.079.142Z" transform="translate(-1756.432 -953.77)" fill="#718185"/>
  <rect id="Rectangle_1" data-name="Rectangle 1" transform="translate(27.376)" fill="#718185"/>
  <path id="Path_3" data-name="Path 3" d="M1886.414,955.093l33.61,60.167h.006Z" transform="translate(-1756.432 -955.006)" fill="none"/>
  <path id="Path_4" data-name="Path 4" d="M1886.414,955.093l-.049-.087h0Z" transform="translate(-1756.432 -955.006)" fill="none"/>
  <path id="Path_5" data-name="Path 5" d="M1782,1020h55l-27.5-9Z" transform="translate(-1756.432 -953.495)" fill="#410a1a"/>
  <path id="Path_6" data-name="Path 6" d="M1823.791,1020H1917l-46.6-22.025Z" transform="translate(-1756.432 -953.708)" fill="#0a3641"/>
  <path id="Path_7" data-name="Path 7" d="M1802.791,1020h55l-27.5-13.025Z" transform="translate(-1756.432 -953.555)" fill="#41310a"/>
  <path id="Path_8" data-name="Path 8" d="M1886.436,1020h55l-27.5-11Z" transform="translate(-1756.432 -953.524)" fill="#410a1a"/>
  <path id="Path_9" data-name="Path 9" d="M1927.436,1020h55l-27.5-9Z" transform="translate(-1756.432 -953.495)" fill="#41310a"/>
  <text id="RAINYDAYS" transform="translate(22.1 63.779)" fill="#0a3641" font-size="34.272" font-family="Montserrat-SemiBold, Montserrat" font-weight="600"><tspan x="0" y="33">RAINYDAYS</tspan></text>
  <text id="Pushing_the_Comfort_Zone_" data-name="Pushing the Comfort Zone " transform="translate(46.43 117.321)" fill="#41310a" font-size="13.464" font-family="ProximaNova-LightIt, Proxima Nova" font-weight="300" font-style="italic"><tspan x="0" y="0">Pushing the Comfort Zone </tspan></text>
  <path id="Path_10" data-name="Path 10" d="M1792.287,1053.734h0Z" transform="translate(-1756.432 -952.524)" fill="#410a1a" stroke="#410a1a" stroke-miterlimit="10" stroke-width="0.75" opacity="0.5"/>
</svg>
