<svg id="Group_1" data-name="Group 1" xmlns="http://www.w3.org/2000/svg" viewBox="0 0 229.46 77.09"><defs><style>.cls-1{fill:#718185;}.cls-2{fill:none;}.cls-11,.cls-3{fill:#410a1a;}.cls-4,.cls-6{fill:#0a3641;}.cls-10,.cls-5{fill:#41310a;}.cls-10,.cls-11,.cls-6{isolation:isolate;}.cls-6{font-size:34.27px;font-family:Montserrat-SemiBold, Montserrat;font-weight:600;}.cls-7{letter-spacing:-0.01em;}.cls-8{letter-spacing:-0.04em;}.cls-9{letter-spacing:-0.02em;}.cls-10{font-size:13.46px;font-family:ProximaNova-LightIt, Proxima Nova;font-weight:300;font-style:italic;}.cls-11{stroke:#410a1a;stroke-miterlimit:10;stroke-width:0.75px;opacity:0.5;}</style></defs><path id="Path_2" data-name="Path 2" class="cls-1" d="M-9.9,42.4l-.1-.1-.1.1Z" transform="translate(10.1 -28.86)"/><path id="Rectangle_1" data-name="Rectangle 1" class="cls-1" d="M23.3,0Z" transform="translate(10.1 -28.86)"/><path id="Path_4" data-name="Path 4" class="cls-2" d="M125.9.1Z" transform="translate(10.1 -28.86)"/><path id="Path_5" data-name="Path 5" class="cls-3" d="M15.18,51.06h55l-27.5-9Z" transform="translate(10.1 -28.86)"/><path id="Path_6" data-name="Path 6" class="cls-4" d="M57,50.86h93.2l-46.6-22Z" transform="translate(10.1 -28.86)"/><path id="Path_7" data-name="Path 7" class="cls-5" d="M36,51H91L63.48,38Z" transform="translate(10.1 -28.86)"/><path id="Path_8" data-name="Path 8" class="cls-3" d="M119.68,51.06h55l-27.5-11Z" transform="translate(10.1 -28.86)"/><path id="Path_9" data-name="Path 9" class="cls-5" d="M160.68,51.06h55l-27.5-9Z" transform="translate(10.1 -28.86)"/><text class="cls-6" transform="translate(21.84 52.47)">RAIN<tspan class="cls-7" x="89.41" y="0">YD</tspan><tspan class="cls-8" x="139.69" y="0">A</tspan><tspan class="cls-9" x="163.92" y="0">Y</tspan><tspan x="186.06" y="0">S</tspan></text><text class="cls-10" transform="translate(46.17 73.01)">Pushing the Comfort Zone</text><path id="Path_10" data-name="Path 10" class="cls-11" d="M25.48,85.76Z" transform="translate(10.1 -28.86)"/></svg>