<svg xmlns="http://www.w3.org/2000/svg" xmlns:xlink="http://www.w3.org/1999/xlink" width="162.5" height="39" viewBox="0 0 162.5 39">
  <defs>
    <clipPath id="clip-path">
      <rect width="133" height="39" fill="none"/>
    </clipPath>
    <filter id="Polygon_1" x="0" y="0" width="39" height="39" filterUnits="userSpaceOnUse">
      <feOffset dy="3" input="SourceAlpha"/>
      <feGaussianBlur stdDeviation="3" result="blur"/>
      <feFlood flood-opacity="0.161"/>
      <feComposite operator="in" in2="blur"/>
      <feComposite in="SourceGraphic"/>
    </filter>
    <filter id="Polygon_1-2" x="25" y="0" width="39" height="39" filterUnits="userSpaceOnUse">
      <feOffset dy="3" input="SourceAlpha"/>
      <feGaussianBlur stdDeviation="3" result="blur-2"/>
      <feFlood flood-opacity="0.161"/>
      <feComposite operator="in" in2="blur-2"/>
      <feComposite in="SourceGraphic"/>
    </filter>
    <filter id="Polygon_1-3" x="50" y="0" width="39" height="39" filterUnits="userSpaceOnUse">
      <feOffset dy="3" input="SourceAlpha"/>
      <feGaussianBlur stdDeviation="3" result="blur-3"/>
      <feFlood flood-opacity="0.161"/>
      <feComposite operator="in" in2="blur-3"/>
      <feComposite in="SourceGraphic"/>
    </filter>
    <filter id="Polygon_1-4" x="75" y="0" width="39" height="39" filterUnits="userSpaceOnUse">
      <feOffset dy="3" input="SourceAlpha"/>
      <feGaussianBlur stdDeviation="3" result="blur-4"/>
      <feFlood flood-opacity="0.161"/>
      <feComposite operator="in" in2="blur-4"/>
      <feComposite in="SourceGraphic"/>
    </filter>
    <filter id="Polygon_1-5" x="100" y="0" width="39" height="39" filterUnits="userSpaceOnUse">
      <feOffset dy="3" input="SourceAlpha"/>
      <feGaussianBlur stdDeviation="3" result="blur-5"/>
      <feFlood flood-opacity="0.161"/>
      <feComposite operator="in" in2="blur-5"/>
      <feComposite in="SourceGraphic"/>
    </filter>
    <filter id="Polygon_1-6" x="125" y="0" width="39" height="39" filterUnits="userSpaceOnUse">
      <feOffset dy="3" input="SourceAlpha"/>
      <feGaussianBlur stdDeviation="3" result="blur-6"/>
      <feFlood flood-opacity="0.161"/>
      <feComposite operator="in" in2="blur-6"/>
      <feComposite in="SourceGraphic"/>
    </filter>
  </defs>
  <g id="Rating" style="isolation: isolate">
    <g id="Repeat_Grid_1" data-name="Repeat Grid 1" clip-path="url(#clip-path)">
      <g transform="translate(-403.5 -1756)">
        <g transform="matrix(1, 0, 0, 1, 403.5, 1756)" filter="url(#Polygon_1)">
          <g id="Polygon_1-7" data-name="Polygon 1" transform="translate(9 6)" fill="#0a3641">
            <path d="M 16.04979515075684 19.65303039550781 L 10.80352973937988 15.64523983001709 L 10.5 15.41337013244629 L 10.19647026062012 15.64523983001709 L 4.950204372406006 19.65303039550781 L 6.96707010269165 13.12633037567139 L 7.070040225982666 12.79310989379883 L 6.792890071868896 12.58137989044189 L 1.478152513504028 8.521289825439453 L 8.021289825439453 8.521289825439453 L 8.390110015869141 8.521289825439453 L 8.49899959564209 8.168910026550293 L 10.5 1.693525075912476 L 12.50100040435791 8.168910026550293 L 12.60988998413086 8.521289825439453 L 12.97871017456055 8.521289825439453 L 19.52184677124023 8.521289825439453 L 14.20711040496826 12.58137989044189 L 13.92996025085449 12.79310989379883 L 14.03293037414551 13.12633037567139 L 16.04979515075684 19.65303039550781 Z" stroke="none"/>
            <path d="M 10.49999809265137 3.387044906616211 L 8.976699829101562 8.316530227661133 L 8.758919715881348 9.021289825439453 L 8.021280288696289 9.021289825439453 L 2.956304550170898 9.021289825439453 L 7.096420288085938 12.18404960632324 L 7.650730133056641 12.60750961303711 L 7.444780349731445 13.27395057678223 L 5.889764785766602 18.30607414245605 L 9.892939567565918 15.24792003631592 L 10.5 14.78416061401367 L 11.10706043243408 15.24792003631592 L 15.11022853851318 18.30607414245605 L 13.55521965026855 13.27395057678223 L 13.34926986694336 12.60750007629395 L 13.90357971191406 12.18404960632324 L 18.0436954498291 9.021289825439453 L 12.97871017456055 9.021289825439453 L 12.24106979370117 9.021289825439453 L 12.02328968048096 8.316530227661133 L 10.49999809265137 3.387044906616211 M 10.5 0 L 12.97871017456055 8.021289825439453 L 21 8.021289825439453 L 14.51064014434814 12.97871017456055 L 16.98934936523438 21 L 10.5 16.04257011413574 L 4.010639190673828 21 L 6.489359855651855 12.97871017456055 L 0 8.021289825439453 L 8.021280288696289 8.021289825439453 L 10.5 0 Z" stroke="none" fill="#0a3641"/>
          </g>
        </g>
      </g>
      <g transform="translate(-378.5 -1756)">
        <g transform="matrix(1, 0, 0, 1, 378.5, 1756)" filter="url(#Polygon_1-2)">
          <g id="Polygon_1-8" data-name="Polygon 1" transform="translate(34 6)" fill="#0a3641">
            <path d="M 16.04979515075684 19.65303039550781 L 10.80352973937988 15.64523983001709 L 10.5 15.41337013244629 L 10.19647026062012 15.64523983001709 L 4.950204372406006 19.65303039550781 L 6.96707010269165 13.12633037567139 L 7.070040225982666 12.79310989379883 L 6.792890071868896 12.58137989044189 L 1.478152513504028 8.521289825439453 L 8.021289825439453 8.521289825439453 L 8.390110015869141 8.521289825439453 L 8.49899959564209 8.168910026550293 L 10.5 1.693525075912476 L 12.50100040435791 8.168910026550293 L 12.60988998413086 8.521289825439453 L 12.97871017456055 8.521289825439453 L 19.52184677124023 8.521289825439453 L 14.20711040496826 12.58137989044189 L 13.92996025085449 12.79310989379883 L 14.03293037414551 13.12633037567139 L 16.04979515075684 19.65303039550781 Z" stroke="none"/>
            <path d="M 10.49999809265137 3.387044906616211 L 8.976699829101562 8.316530227661133 L 8.758919715881348 9.021289825439453 L 8.021280288696289 9.021289825439453 L 2.956304550170898 9.021289825439453 L 7.096420288085938 12.18404960632324 L 7.650730133056641 12.60750961303711 L 7.444780349731445 13.27395057678223 L 5.889764785766602 18.30607414245605 L 9.892939567565918 15.24792003631592 L 10.5 14.78416061401367 L 11.10706043243408 15.24792003631592 L 15.11022853851318 18.30607414245605 L 13.55521965026855 13.27395057678223 L 13.34926986694336 12.60750007629395 L 13.90357971191406 12.18404960632324 L 18.0436954498291 9.021289825439453 L 12.97871017456055 9.021289825439453 L 12.24106979370117 9.021289825439453 L 12.02328968048096 8.316530227661133 L 10.49999809265137 3.387044906616211 M 10.5 0 L 12.97871017456055 8.021289825439453 L 21 8.021289825439453 L 14.51064014434814 12.97871017456055 L 16.98934936523438 21 L 10.5 16.04257011413574 L 4.010639190673828 21 L 6.489359855651855 12.97871017456055 L 0 8.021289825439453 L 8.021280288696289 8.021289825439453 L 10.5 0 Z" stroke="none" fill="#0a3641"/>
          </g>
        </g>
      </g>
      <g transform="translate(-353.5 -1756)">
        <g transform="matrix(1, 0, 0, 1, 353.5, 1756)" filter="url(#Polygon_1-3)">
          <g id="Polygon_1-9" data-name="Polygon 1" transform="translate(59 6)" fill="#0a3641">
            <path d="M 16.04979515075684 19.65303039550781 L 10.80352973937988 15.64523983001709 L 10.5 15.41337013244629 L 10.19647026062012 15.64523983001709 L 4.950204372406006 19.65303039550781 L 6.96707010269165 13.12633037567139 L 7.070040225982666 12.79310989379883 L 6.792890071868896 12.58137989044189 L 1.478152513504028 8.521289825439453 L 8.021289825439453 8.521289825439453 L 8.390110015869141 8.521289825439453 L 8.49899959564209 8.168910026550293 L 10.5 1.693525075912476 L 12.50100040435791 8.168910026550293 L 12.60988998413086 8.521289825439453 L 12.97871017456055 8.521289825439453 L 19.52184677124023 8.521289825439453 L 14.20711040496826 12.58137989044189 L 13.92996025085449 12.79310989379883 L 14.03293037414551 13.12633037567139 L 16.04979515075684 19.65303039550781 Z" stroke="none"/>
            <path d="M 10.49999809265137 3.387044906616211 L 8.976699829101562 8.316530227661133 L 8.758919715881348 9.021289825439453 L 8.021280288696289 9.021289825439453 L 2.956304550170898 9.021289825439453 L 7.096420288085938 12.18404960632324 L 7.650730133056641 12.60750961303711 L 7.444780349731445 13.27395057678223 L 5.889764785766602 18.30607414245605 L 9.892939567565918 15.24792003631592 L 10.5 14.78416061401367 L 11.10706043243408 15.24792003631592 L 15.11022853851318 18.30607414245605 L 13.55521965026855 13.27395057678223 L 13.34926986694336 12.60750007629395 L 13.90357971191406 12.18404960632324 L 18.0436954498291 9.021289825439453 L 12.97871017456055 9.021289825439453 L 12.24106979370117 9.021289825439453 L 12.02328968048096 8.316530227661133 L 10.49999809265137 3.387044906616211 M 10.5 0 L 12.97871017456055 8.021289825439453 L 21 8.021289825439453 L 14.51064014434814 12.97871017456055 L 16.98934936523438 21 L 10.5 16.04257011413574 L 4.010639190673828 21 L 6.489359855651855 12.97871017456055 L 0 8.021289825439453 L 8.021280288696289 8.021289825439453 L 10.5 0 Z" stroke="none" fill="#0a3641"/>
          </g>
        </g>
      </g>
      <g transform="translate(-328.5 -1756)">
        <g transform="matrix(1, 0, 0, 1, 328.5, 1756)" filter="url(#Polygon_1-4)">
          <g id="Polygon_1-10" data-name="Polygon 1" transform="translate(84 6)" fill="#0a3641">
            <path d="M 16.04979515075684 19.65303039550781 L 10.80352973937988 15.64523983001709 L 10.5 15.41337013244629 L 10.19647026062012 15.64523983001709 L 4.950204372406006 19.65303039550781 L 6.96707010269165 13.12633037567139 L 7.070040225982666 12.79310989379883 L 6.792890071868896 12.58137989044189 L 1.478152513504028 8.521289825439453 L 8.021289825439453 8.521289825439453 L 8.390110015869141 8.521289825439453 L 8.49899959564209 8.168910026550293 L 10.5 1.693525075912476 L 12.50100040435791 8.168910026550293 L 12.60988998413086 8.521289825439453 L 12.97871017456055 8.521289825439453 L 19.52184677124023 8.521289825439453 L 14.20711040496826 12.58137989044189 L 13.92996025085449 12.79310989379883 L 14.03293037414551 13.12633037567139 L 16.04979515075684 19.65303039550781 Z" stroke="none"/>
            <path d="M 10.49999809265137 3.387044906616211 L 8.976699829101562 8.316530227661133 L 8.758919715881348 9.021289825439453 L 8.021280288696289 9.021289825439453 L 2.956304550170898 9.021289825439453 L 7.096420288085938 12.18404960632324 L 7.650730133056641 12.60750961303711 L 7.444780349731445 13.27395057678223 L 5.889764785766602 18.30607414245605 L 9.892939567565918 15.24792003631592 L 10.5 14.78416061401367 L 11.10706043243408 15.24792003631592 L 15.11022853851318 18.30607414245605 L 13.55521965026855 13.27395057678223 L 13.34926986694336 12.60750007629395 L 13.90357971191406 12.18404960632324 L 18.0436954498291 9.021289825439453 L 12.97871017456055 9.021289825439453 L 12.24106979370117 9.021289825439453 L 12.02328968048096 8.316530227661133 L 10.49999809265137 3.387044906616211 M 10.5 0 L 12.97871017456055 8.021289825439453 L 21 8.021289825439453 L 14.51064014434814 12.97871017456055 L 16.98934936523438 21 L 10.5 16.04257011413574 L 4.010639190673828 21 L 6.489359855651855 12.97871017456055 L 0 8.021289825439453 L 8.021280288696289 8.021289825439453 L 10.5 0 Z" stroke="none" fill="#0a3641"/>
          </g>
        </g>
      </g>
      <g transform="translate(-303.5 -1756)">
        <g transform="matrix(1, 0, 0, 1, 303.5, 1756)" filter="url(#Polygon_1-5)">
          <g id="Polygon_1-11" data-name="Polygon 1" transform="translate(109 6)" fill="#0a3641">
            <path d="M 16.04979515075684 19.65303039550781 L 10.80352973937988 15.64523983001709 L 10.5 15.41337013244629 L 10.19647026062012 15.64523983001709 L 4.950204372406006 19.65303039550781 L 6.96707010269165 13.12633037567139 L 7.070040225982666 12.79310989379883 L 6.792890071868896 12.58137989044189 L 1.478152513504028 8.521289825439453 L 8.021289825439453 8.521289825439453 L 8.390110015869141 8.521289825439453 L 8.49899959564209 8.168910026550293 L 10.5 1.693525075912476 L 12.50100040435791 8.168910026550293 L 12.60988998413086 8.521289825439453 L 12.97871017456055 8.521289825439453 L 19.52184677124023 8.521289825439453 L 14.20711040496826 12.58137989044189 L 13.92996025085449 12.79310989379883 L 14.03293037414551 13.12633037567139 L 16.04979515075684 19.65303039550781 Z" stroke="none"/>
            <path d="M 10.49999809265137 3.387044906616211 L 8.976699829101562 8.316530227661133 L 8.758919715881348 9.021289825439453 L 8.021280288696289 9.021289825439453 L 2.956304550170898 9.021289825439453 L 7.096420288085938 12.18404960632324 L 7.650730133056641 12.60750961303711 L 7.444780349731445 13.27395057678223 L 5.889764785766602 18.30607414245605 L 9.892939567565918 15.24792003631592 L 10.5 14.78416061401367 L 11.10706043243408 15.24792003631592 L 15.11022853851318 18.30607414245605 L 13.55521965026855 13.27395057678223 L 13.34926986694336 12.60750007629395 L 13.90357971191406 12.18404960632324 L 18.0436954498291 9.021289825439453 L 12.97871017456055 9.021289825439453 L 12.24106979370117 9.021289825439453 L 12.02328968048096 8.316530227661133 L 10.49999809265137 3.387044906616211 M 10.5 0 L 12.97871017456055 8.021289825439453 L 21 8.021289825439453 L 14.51064014434814 12.97871017456055 L 16.98934936523438 21 L 10.5 16.04257011413574 L 4.010639190673828 21 L 6.489359855651855 12.97871017456055 L 0 8.021289825439453 L 8.021280288696289 8.021289825439453 L 10.5 0 Z" stroke="none" fill="#0a3641"/>
          </g>
        </g>
      </g>
      <g transform="translate(-278.5 -1756)">
        <g transform="matrix(1, 0, 0, 1, 278.5, 1756)" filter="url(#Polygon_1-6)">
          <g id="Polygon_1-12" data-name="Polygon 1" transform="translate(134 6)" fill="#0a3641">
            <path d="M 16.04979515075684 19.65303039550781 L 10.80352973937988 15.64523983001709 L 10.5 15.41337013244629 L 10.19647026062012 15.64523983001709 L 4.950204372406006 19.65303039550781 L 6.96707010269165 13.12633037567139 L 7.070040225982666 12.79310989379883 L 6.792890071868896 12.58137989044189 L 1.478152513504028 8.521289825439453 L 8.021289825439453 8.521289825439453 L 8.390110015869141 8.521289825439453 L 8.49899959564209 8.168910026550293 L 10.5 1.693525075912476 L 12.50100040435791 8.168910026550293 L 12.60988998413086 8.521289825439453 L 12.97871017456055 8.521289825439453 L 19.52184677124023 8.521289825439453 L 14.20711040496826 12.58137989044189 L 13.92996025085449 12.79310989379883 L 14.03293037414551 13.12633037567139 L 16.04979515075684 19.65303039550781 Z" stroke="none"/>
            <path d="M 10.49999809265137 3.387044906616211 L 8.976699829101562 8.316530227661133 L 8.758919715881348 9.021289825439453 L 8.021280288696289 9.021289825439453 L 2.956304550170898 9.021289825439453 L 7.096420288085938 12.18404960632324 L 7.650730133056641 12.60750961303711 L 7.444780349731445 13.27395057678223 L 5.889764785766602 18.30607414245605 L 9.892939567565918 15.24792003631592 L 10.5 14.78416061401367 L 11.10706043243408 15.24792003631592 L 15.11022853851318 18.30607414245605 L 13.55521965026855 13.27395057678223 L 13.34926986694336 12.60750007629395 L 13.90357971191406 12.18404960632324 L 18.0436954498291 9.021289825439453 L 12.97871017456055 9.021289825439453 L 12.24106979370117 9.021289825439453 L 12.02328968048096 8.316530227661133 L 10.49999809265137 3.387044906616211 M 10.5 0 L 12.97871017456055 8.021289825439453 L 21 8.021289825439453 L 14.51064014434814 12.97871017456055 L 16.98934936523438 21 L 10.5 16.04257011413574 L 4.010639190673828 21 L 6.489359855651855 12.97871017456055 L 0 8.021289825439453 L 8.021280288696289 8.021289825439453 L 10.5 0 Z" stroke="none" fill="#0a3641"/>
          </g>
        </g>
      </g>
    </g>
    <text id="_5.0" data-name="5.0" transform="translate(139.5 25)" fill="#0a3641" stroke="#0a3641" stroke-width="1" font-size="15" font-family="ProximaNova-Regular, Proxima Nova"><tspan x="0" y="0">5.0</tspan></text>
  </g>
</svg>
